<svg xmlns="http://www.w3.org/2000/svg" width="425" height="98" viewBox="0 0 425 98" fill="none"><g clip-path="url(#clip0_1_261)"><path d="M56.26 0H37.23L0 37.21V56.22L37.23 93.33H56.26L93.48 56.21V37.2L56.26 0ZM77.26 56.22H56.26V77.05H37.25V56.22H16.58V37.21H37.25V16.38H56.26V37.21H77.26V56.22Z" fill="#AD2119"></path><path d="M0.0200043 37.2H37.24V0" fill="#DE2E26"></path><path d="M56.26 0V37.2H93.48" fill="#DE2E26"></path><path d="M37.23 93.34L37.22 56.21H0" fill="#DE2E26"></path><path d="M93.48 56.21H56.26V93.34" fill="#DE2E26"></path><path d="M110.49 24.35H118.55L132.72 61.93L146.89 24.35H154.95V70.64H148.84V33.38H148.71L135.19 70.64H130.25L116.73 33.38H116.6V70.64H110.49V24.35Z" fill="#3A3A3C"></path><path d="M177.2 38.79C186.69 38.79 192.41 45.68 192.41 55.11C192.41 64.54 186.69 71.43 177.2 71.43C167.71 71.43 161.99 64.54 161.99 55.11C161.99 45.68 167.71 38.79 177.2 38.79ZM177.2 67.27C184.87 67.27 186.69 60.25 186.69 55.11C186.69 49.97 184.87 42.95 177.2 42.95C169.53 42.95 167.71 49.97 167.71 55.11C167.71 60.25 169.53 67.27 177.2 67.27Z" fill="#3A3A3C"></path><path d="M227.07 70.65H221.74V66.94H221.61H221.67C219.52 69.87 215.88 71.43 212.11 71.43C200.6 71.43 196.83 63.43 196.83 55.11C196.83 46.79 200.99 38.79 211.65 38.79C215.81 38.79 219.32 40.35 221.6 43.47H221.73V24.35H227.06V70.64L227.07 70.65ZM212.25 66.88C219.14 66.88 221.94 61.29 221.94 55.11C221.94 48.93 218.43 43.34 212.25 43.34C205.36 43.34 202.56 48.93 202.56 55.11C202.56 61.29 205.36 66.88 212.25 66.88Z" fill="#3A3A3C"></path><path d="M238.71 56.28C238.71 62.46 241.96 67.27 248.07 67.27C252.75 67.27 255.61 64.93 256.78 60.31L262.05 60.96C260.03 67.92 254.77 71.43 247.88 71.43C238.39 71.63 232.99 64.21 232.99 55.37C232.99 45.29 237.74 38.79 247.81 38.79C257.88 38.79 262.31 45.88 262.31 55.04V56.28H238.71ZM256.59 52.12C255.94 47.05 253.08 42.95 247.23 42.95C242.03 42.95 239.04 47.37 238.71 52.12H256.59Z" fill="#3A3A3C"></path><path d="M268.62 39.57H273.95V44.9H274.08C276.62 40.67 279.67 39.18 285.07 39.18V45.03C284.03 44.97 282.4 44.9 281.49 44.9C276.35 44.9 273.95 49.65 273.95 53.22V70.64H268.62V39.56V39.57Z" fill="#3A3A3C"></path><path d="M290.27 39.57H295.6V43.73H295.73C297.75 40.61 300.8 38.79 304.83 38.79C311.07 38.79 315.82 41.52 315.82 50.17V70.65H310.49V50.69C310.49 45.36 307.69 43.73 303.92 43.73C298.98 43.73 295.6 46.92 295.6 51.92V70.65H290.27V39.57Z" fill="#3A3A3C"></path><path d="M324.15 24.35H341.12L349.31 58.74H349.44L357.89 24.35H374.66V70.64H363.74V34.69H363.61L354.44 70.64H344.23L334.8 34.69H334.67V70.64H324.14V24.35H324.15Z" fill="#3A3A3C"></path><path d="M383.06 24.35H401.01C415.12 24.35 424.61 31.05 424.61 47.5C424.61 63.95 415.12 70.65 401.01 70.65H383.06V24.35ZM394.63 60.89H401.26C409.91 60.89 413.03 54.97 413.03 47.5C413.03 40.03 409.91 34.11 401.2 34.11H394.63V60.9V60.89Z" fill="#3A3A3C"></path><path d="M246.32 84.81H247.96V92.37C247.96 95.46 249.27 96.44 250.93 96.44C252.59 96.44 253.98 95.46 253.98 92.37V84.81H255.54V92.34C255.54 96.46 253.55 97.87 250.93 97.87C248.31 97.87 246.32 96.46 246.32 92.34V84.81Z" fill="#7D8080"></path><path d="M271.79 97.63L268.7 92.22H266.39V97.63H264.75V84.81H268.78C271.38 84.81 273.26 85.75 273.26 88.41C273.26 90.4 272.13 91.6 270.39 92.05L273.65 97.64H271.79V97.63ZM266.4 90.89H268.55C270.54 90.89 271.64 90.07 271.64 88.41C271.64 86.75 270.55 86.12 268.55 86.12H266.4V90.89Z" fill="#7D8080"></path><path d="M287.06 84.58C288.8 84.58 289.97 85.38 290.73 86.16L289.79 87.2C289.14 86.52 288.34 86.01 287.07 86.01C284.47 86.01 282.81 88 282.81 91.19C282.81 94.38 284.33 96.45 287.07 96.45C287.99 96.45 288.89 96.16 289.4 95.69V92.35H286.68V91H290.88V96.39C290.04 97.21 288.61 97.88 286.89 97.88C283.53 97.88 281.12 95.42 281.12 91.23C281.12 87.04 283.6 84.58 287.04 84.58H287.06Z" fill="#7D8080"></path><path d="M299.71 84.81H307.1V86.18H301.35V90.21H306.2V91.6H301.35V96.25H307.29V97.64H299.71V84.82V84.81Z" fill="#7D8080"></path><path d="M316.76 84.81H318.44L323.09 92.86L324.48 95.52H324.56C324.48 94.23 324.34 92.78 324.34 91.43V84.8H325.88V97.62H324.2L319.57 89.55L318.18 86.91H318.1C318.18 88.2 318.3 89.57 318.3 90.92V97.62H316.75V84.8L316.76 84.81Z" fill="#7D8080"></path><path d="M337.85 86.18H333.96V84.81H343.36V86.18H339.47V97.63H337.85V86.18Z" fill="#7D8080"></path><path d="M364.46 84.58C365.99 84.58 367.2 85.32 367.96 86.16L367.04 87.2C366.36 86.48 365.54 86.01 364.48 86.01C362.04 86.01 360.41 88 360.41 91.19C360.41 94.38 361.95 96.45 364.4 96.45C365.61 96.45 366.51 95.94 367.33 95.02L368.25 96.02C367.25 97.19 365.98 97.88 364.36 97.88C361.14 97.88 358.73 95.42 358.73 91.23C358.73 87.04 361.17 84.58 364.46 84.58Z" fill="#7D8080"></path><path d="M382.27 93.73H377.6L376.37 97.64H374.71L379.05 84.82H380.89L385.23 97.64H383.51L382.28 93.73H382.27ZM381.86 92.42L381.25 90.46C380.8 89.03 380.39 87.63 379.98 86.14H379.9C379.49 87.63 379.08 89.03 378.63 90.46L378.01 92.42H381.86Z" fill="#7D8080"></path><path d="M399.83 97.63L396.74 92.22H394.43V97.63H392.79V84.81H396.82C399.42 84.81 401.3 85.75 401.3 88.41C401.3 90.4 400.17 91.6 398.43 92.05L401.69 97.64H399.83V97.63ZM394.43 90.89H396.58C398.57 90.89 399.67 90.07 399.67 88.41C399.67 86.75 398.58 86.12 396.58 86.12H394.43V90.89Z" fill="#7D8080"></path><path d="M409.92 84.81H417.31V86.18H411.56V90.21H416.41V91.6H411.56V96.25H417.5V97.64H409.92V84.82V84.81Z" fill="#7D8080"></path></g><defs><clipPath id="clip0_1_261"><rect width="424.6" height="97.87" fill="white"></rect></clipPath></defs></svg>